<?xml version="1.0" encoding="UTF-8"?>
<svg xmlns="http://www.w3.org/2000/svg" xmlns:xlink="http://www.w3.org/1999/xlink" width="100.000mm" height="100.000mm" viewBox="137.910202 130.601257 100.000000 100.000000">
    <circle transform="translate(187.910202,180.601257)" style="stroke:#000000;stroke-width:0.05mm;fill:none" r="50" cx="0" cy="0"/>
    <path transform="matrix(-0.955747,-0.033375,-0.033375,0.955747,336.357178,92.209061)" style="stroke:#000000;stroke-width:0.05mm;fill:none" d="M152.921143,57.963867L153.954102,58.00293C175.531418,59.115517,192.285675,77.22641,191.718262,98.824951C191.152786,120.82399,172.855896,138.194061,150.857178,137.616211C128.860275,137.051193,111.490883,118.757622,112.065918,96.760986C112.627647,74.761711,130.922211,57.388744,152.921143,57.963867z"/>
    <path style="stroke:none;fill:#0000ff;fill-rule:evenodd" d="M169.072906,200.784332L166.625244,203.431274C165.138245,205.039368,163.339752,206.328247,161.339096,207.219604C159.502472,208.103638,157.524384,208.656708,155.49559,208.853394L152.846115,208.803162L153.186096,209.225281L153.882141,210.048279L154.596008,210.852966L155.337708,211.649597L156.09137,212.421326L156.865784,213.177917L157.65387,213.911316L158.463196,214.629333L159.286194,215.325378L160.131897,216.006531L160.98468,216.660339L161.868958,217.305115L162.752014,217.917175L163.656311,218.512634L164.579407,219.088806L165.513,219.640808L166.471741,220.176941L167.426086,220.680115L168.398743,221.163757L169.393616,221.628113L170.402161,222.069275L171.401672,222.477722L172.440979,222.872742L173.480286,223.238708L174.525452,223.578308L175.584778,223.893494L176.660706,224.184509L177.742004,224.448425L178.840393,224.687439L179.934387,224.896912L181.054504,225.082458L182.177551,225.239929L183.296204,225.367615L184.443665,225.469666L185.594299,225.542664L186.746155,225.586121L187.910217,225.601013L189.07428,225.586121L190.226624,225.542419L191.376282,225.469666L192.524231,225.367615L193.642883,225.239929L194.76593,225.082458L195.886047,224.896912L196.982239,224.686951L198.074524,224.449402L199.161926,224.183777L200.235657,223.893494L201.294983,223.578308L202.340149,223.238708L203.379456,222.872742L204.413635,222.479431L205.428284,222.065125L206.429993,221.626892L207.414612,221.167419L208.386047,220.684509L209.356506,220.172302L210.307434,219.640808L211.241028,219.088806L212.164124,218.512634L213.06842,217.917175L213.951477,217.305115L214.835754,216.660339L215.688538,216.006531L216.534241,215.325378L217.357239,214.629333L218.166565,213.911316L218.954651,213.177917L219.729797,212.420837L220.486877,211.645691L221.220276,210.857605L221.938293,210.048279L222.634338,209.225281L223.315491,208.379578L223.969299,207.526794L224.614075,206.642517L225.226135,205.75946L225.821594,204.855164L226.397766,203.932068L226.949768,202.998474L227.481262,202.047546L227.993469,201.077087L228.476379,200.105652L228.935852,199.121033L229.374084,198.119324L229.788391,197.104675L230.181702,196.070496L230.547668,195.031189L230.887268,193.986023L231.202454,192.926697L231.492737,191.852966L231.758362,190.765564L231.995911,189.673279L232.205872,188.577087L232.391418,187.456955L232.548889,186.333923L232.676575,185.215271L232.778625,184.067322L232.851379,182.917664L232.895081,181.76532L232.909973,180.601257L232.895081,179.437195L232.851624,178.285339L232.778625,177.134705L232.676575,175.987244L232.548889,174.868591L232.391418,173.745544L232.205872,172.625427L232.119141,172.1987L232.034729,172.426697L232.019104,172.472107L231.892151,172.810242L231.873596,172.855652L231.730286,173.186951L231.710022,173.23114L231.550598,173.555359L231.528381,173.598083L231.397217,173.835358C232.00473,177.743378,232.085632,181.739502,231.617981,185.716492L169.072906,200.784332zM195.501709,200.102554L193.794312,200.511597L192.159607,214.899902L189.284515,215.588699L190.91922,201.200394L189.218826,201.607758L189.627579,198.007706L195.910461,196.502502L195.501709,200.102554zM201.935364,198.561234L200.227966,198.970276L198.593262,213.358582L195.71817,214.047379L197.35289,199.659073L195.652496,200.066437L196.061249,196.466385L202.344116,194.961182L201.935364,198.561234zM207.371902,197.258804L205.452927,197.718536L205.065475,201.12944L206.861404,200.699188L206.472595,204.121109L204.676666,204.551361L204.227249,208.507095L206.33754,208.001526L205.928513,211.601273L200.94313,212.795624L202.986832,194.807205L207.780899,193.658691L207.371902,197.258804zM219.612152,190.466095C220.198639,190.320343,220.799774,190.422256,221.351852,190.761047C221.798218,191.005768,222.100235,191.65387,222.108978,192.385712C222.11467,193.45871,222.040146,194.529068,221.886887,195.575638L219.216629,196.215347L219.367996,194.882019C219.436844,194.503006,219.448029,194.104446,219.400681,193.717636C219.360794,193.601822,219.282272,193.530655,219.197403,193.533417C218.922882,193.535919,218.676743,193.796524,218.576065,194.191238C218.370987,194.874893,218.309494,195.639999,218.400101,196.380417C218.522736,196.726349,218.714172,197.001556,218.946289,197.165573L219.49379,197.628922C220.007813,198.041367,220.479828,198.56871,220.894409,199.193726C221.161209,199.619537,221.319244,200.180222,221.33931,200.772156C221.399506,202.599686,221.186737,204.423065,220.71727,206.102966C220.495468,206.754242,220.175079,207.313095,219.783463,207.731812C218.751129,208.916809,217.467758,209.455505,216.189392,209.240417C215.676514,209.15834,215.208679,208.751099,214.8974,208.115799C214.717911,207.622253,214.638855,207.056412,214.670578,206.492386C214.699554,205.374359,214.793701,204.262573,214.951859,203.170685L217.622116,202.53096L217.373459,204.719604C217.298828,205.134155,217.286804,205.569763,217.338333,205.99263C217.384827,206.126129,217.476517,206.206436,217.574509,206.199509C217.874359,206.205933,218.14621,205.926453,218.25827,205.496567C218.481003,204.665039,218.560135,203.759125,218.488052,202.866089C218.426483,202.587692,218.304184,202.351669,218.141876,202.197968C217.59462,201.603699,217.03688,201.032837,216.469299,200.486008L216.325775,200.32605C215.938538,199.946442,215.67543,199.326538,215.60437,198.626389C215.522049,197.691162,215.556152,196.740692,215.704865,195.825272C215.802719,194.909027,216.008102,194.027893,216.310822,193.225708C216.715912,192.312424,217.27919,191.594254,217.936356,191.153183C218.468201,190.78981,219.033707,190.557953,219.612152,190.466095zM188.396194,215.801514L185.457901,216.505447L185.670731,213.309341L184.642487,213.555679L184.102264,216.830215L181.129715,217.542358L184.64003,199.202576L188.795471,198.207047L188.396194,215.801514zM186.131729,203.961319C185.71254,206.085556,185.32457,208.224228,184.968109,210.375687L185.957764,210.138596L185.992584,209.365067C186.101212,207.136993,186.229843,204.910614,186.378311,202.688034L186.131729,203.961319zM211.383789,192.799744C212.12236,192.592438,212.872177,192.494766,213.622757,192.508102C214.19754,192.55954,214.675385,193.21225,214.779037,194.08754C214.868851,194.980316,214.849686,195.891235,214.722534,196.773102C214.647598,197.709351,214.463455,198.617188,214.179138,199.451996C213.935837,200.00972,213.578247,200.424438,213.163757,200.629578C213.018295,200.713409,212.869812,200.784164,212.719055,200.841507L212.913605,200.881958C213.199753,200.91983,213.472092,201.089035,213.695587,201.367767C213.962463,201.823746,214.069351,202.452728,213.981918,203.052536C213.940674,203.566284,213.891205,204.078323,213.833557,204.588272L213.236969,209.850372L210.566711,210.490082L211.245697,204.512558C211.333038,203.970428,211.361526,203.409348,211.329987,202.852798C211.300064,202.681015,211.199997,202.561234,211.0849,202.559464C210.927841,202.533585,210.76918,202.543411,210.613968,202.588669L209.692398,210.699554L206.817307,211.388336L208.861008,193.399918C209.702133,193.192566,210.541367,192.992889,211.383789,192.799744zM210.932022,199.788895C211.183105,199.752197,211.424713,199.621994,211.636124,199.409439C211.814102,199.076035,211.925018,198.669846,211.955383,198.240158C212.031754,197.691422,212.091873,197.137558,212.135529,196.580338C212.15007,196.399475,212.139816,196.215897,212.105453,196.041534C212.048065,195.862152,211.929199,195.750641,211.799744,195.754715C211.661575,195.739944,211.522751,195.751404,211.386383,195.788834L210.932022,199.788895zM177.462723,201.746429L177.443024,202.646149C177.426025,203.317398,177.405807,203.990601,177.382538,204.661423L177.270828,209.13916L178.885986,200.581085L182.626724,199.684906L180.583023,217.673325L178.069824,218.275421L179.446228,206.132294L177.065933,218.515915L175.283508,218.942932L175.576569,207.3293L174.225113,219.196503L171.711914,219.798584L173.755371,201.810226L177.475586,200.918976L177.462723,201.746429zM220.215134,210.476242C208.098557,223.591385,189.255386,228.079788,172.52739,221.835373L220.36235,210.311203L220.215134,210.476242zM205.998581,217.109055L206.059128,217.123947L206.117477,217.146164L206.172653,217.175705L206.223679,217.211838L206.269821,217.25383L206.310349,217.301437L206.344528,217.353683L206.372116,217.409836L206.39238,217.468918L206.405075,217.529953L206.410202,217.592209L206.407272,217.654709L206.396774,217.716232L206.378708,217.776047L206.353317,217.833176L206.320847,217.886642L206.282028,217.935471L206.23735,217.979172L206.18779,218.017014L206.133835,218.048508L206.076218,218.072922L206.008347,218.091476L201.321579,219.028732L200.8228,221.10759L200.804489,221.167404L200.778854,221.224289L200.746384,221.277512L200.707321,221.32634L200.662643,221.370041L200.612839,221.407639L200.55864,221.438889L200.501266,221.463058L200.440964,221.479904L200.379196,221.489182L200.316696,221.490402L200.254684,221.484055L200.193649,221.469894L200.135056,221.44841L200.079636,221.419846L200.028122,221.384445L199.981491,221.342697L199.958298,221.317795L197.843796,218.869308L197.404099,221.678635L197.390671,221.739426L197.369675,221.798264L197.341599,221.854172L197.306686,221.90593L197.265427,221.953049L197.218796,221.994553L197.167526,222.029953L197.112106,222.058762L197.053268,222.080246L196.992477,222.094406L196.930466,222.100754L196.867966,222.099533L196.806198,222.090256L196.745895,222.07341L196.688278,222.04924L196.634323,222.018234L196.584274,221.980392L196.527634,221.923264L194.559616,219.585861L194.405319,220.671555L194.392624,220.732834L194.37236,220.791916L194.345016,220.848068L194.310837,220.900314L194.270554,220.947922L194.224411,220.990158L194.173386,221.026291L194.118454,221.055832L194.060104,221.078293L194.008347,221.091476L189.008347,222.091476L188.946335,222.100021L188.883835,222.10051L188.821823,222.09343L188.761276,222.078537L188.702927,222.05632L188.647751,222.026779L188.596725,221.990646L188.550583,221.948654L188.510056,221.901047L188.475876,221.848801L188.448288,221.792648L188.428024,221.733566L188.415329,221.672531L188.410202,221.610275L188.413132,221.547775L188.42363,221.486252L188.441696,221.426437L188.467087,221.369308L188.499557,221.315842L188.538376,221.267014L188.583054,221.223312L188.632614,221.185471L188.686569,221.153976L188.744186,221.129562L188.812057,221.111008L193.46489,220.180344L193.726608,218.338058L193.739304,218.276779L193.759567,218.217697L193.786911,218.161545L193.821091,218.109299L193.861374,218.061691L193.907516,218.019455L193.958542,217.983322L194.013474,217.953781L194.071823,217.93132L194.13237,217.916428L194.194626,217.909103L194.256882,217.909592L194.318893,217.917892L194.379196,217.933762L194.437302,217.957199L194.491745,217.987717L194.542282,218.024582L194.604294,218.086349L196.585983,220.439865L197.022751,217.648117L197.036179,217.587326L197.057175,217.528488L197.085251,217.47258L197.120163,217.420822L197.161423,217.373703L197.208054,217.332199L197.259323,217.296799L197.314743,217.26799L197.373581,217.246506L197.434372,217.232346L197.496384,217.225998L197.558884,217.227219L197.620651,217.236496L197.680954,217.253342L197.738571,217.277512L197.792526,217.308517L197.842575,217.346359L197.895065,217.398605L200.078171,219.926437L200.424118,218.484543L200.442429,218.424728L200.468063,218.367844L200.500534,218.314621L200.539597,218.265793L200.584274,218.222092L200.634079,218.184494L200.688278,218.153244L200.745651,218.129074L200.812057,218.111008L205.812057,217.111008L205.874069,217.102463L205.936569,217.101974L205.998581,217.109055z"/>
    <path style="stroke:none;fill:#0000ff;fill-rule:evenodd" d="M205.666794,167.025955C206.055038,166.953247,206.456253,167.055298,206.760544,167.307129C207.06485,167.558945,207.240143,167.93399,207.241333,168.328979C207.282852,169.223236,206.671875,170.016052,205.796555,170.203751C205.155945,170.28981,204.54509,169.909027,204.340302,169.295959C204.149506,168.751617,204.252808,168.147079,204.613541,167.696976C204.864777,167.345673,205.242233,167.105194,205.666794,167.025955z"/>
    <path style="stroke:none;fill:#0000ff;fill-rule:evenodd" d="M156.689178,176.57222C157.692139,176.258102,158.726517,176.055038,159.773773,175.966644C162.655975,175.657761,165.568604,175.805374,168.4048,176.404083C168.560089,175.923538,168.84108,175.494308,169.21936,175.159744C169.673401,174.808502,170.233856,174.623276,170.80777,174.634781C171.331161,174.67363,171.73616,175.108459,171.737762,175.633286C171.702911,175.851501,171.516571,176.013474,171.295624,176.017578C171.12262,176.015823,170.953171,175.969086,170.803726,175.881912L170.686707,175.893143C170.480011,175.940521,170.291306,176.046387,170.143158,176.198105L169.910904,176.455048C169.859467,176.511688,169.796036,176.556107,169.72522,176.585068L169.740372,176.583054C170.31218,176.546875,170.88559,176.544189,171.457703,176.574997L171.967392,176.575745C173.401596,176.597931,174.833435,176.451019,176.233276,176.138092C176.869705,176.00087,177.478271,175.756134,178.032516,175.41452C178.350937,175.238998,178.592041,174.950348,178.708038,174.605743C178.744339,174.461533,178.764709,174.313766,178.768784,174.1651L178.793381,174.001038C178.810455,173.754562,178.957718,173.535706,179.179596,173.427032C179.370316,173.34108,179.595566,173.414398,179.699142,173.596146C180.100494,174.304413,180.061356,175.179672,179.598389,175.849289C179.058136,176.657043,178.252167,177.25032,177.320358,177.526169C177.11647,177.592972,176.909424,177.649719,176.699951,177.696198C175.084854,177.986359,173.440842,178.081512,171.80304,177.97963C170.973831,177.961792,170.147842,177.868744,169.335449,177.701614L169.144775,178.311874C168.839615,179.525925,168.651245,180.766251,168.582199,182.016159C168.541718,182.767868,168.512024,183.519943,168.493073,184.272507L168.47551,184.592453C168.456696,185.004486,168.404877,185.414383,168.320557,185.818146C170.099792,185.310791,171.848083,184.700409,173.556442,183.990097L173.758011,183.922699C173.948044,183.8508,174.156006,183.840912,174.35199,183.89447C174.528717,183.968521,174.629761,184.155548,174.594879,184.343948C174.514252,184.594193,174.352264,184.809952,174.13446,184.957214C173.647064,185.306427,173.118774,185.594513,172.561249,185.815125C171.305954,186.38295,170.013351,186.864395,168.692459,187.256088C168.592468,187.284454,168.49025,187.30423,168.386917,187.315247C168.399872,188.862579,168.338913,190.409607,168.204208,191.95108C168.071411,193.334854,167.804886,194.702576,167.408386,196.034973C166.890198,197.769318,166.049606,199.390167,164.930511,200.812866C163.620865,202.40799,161.953888,203.672638,160.064926,204.504135C158.774734,205.122833,157.401749,205.551544,155.988739,205.776917C154.088165,206.073883,152.142212,205.816711,150.384018,205.03627C148.199707,204.045059,146.544525,202.164642,145.838516,199.872208C145.486084,198.765686,145.318314,197.608841,145.341873,196.447784C145.483215,195.079742,146.104446,193.806686,147.09581,192.853424C147.311905,192.639496,147.572327,192.475571,147.858688,192.37326C147.932343,192.343674,148.017029,192.368134,148.063797,192.432281C148.112732,192.576965,148.105682,192.734772,148.044052,192.874527C147.93457,193.275482,147.753906,193.653534,147.510712,193.990601L147.309357,194.30011C147.033752,194.760025,146.800323,195.243896,146.611938,195.745895C146.423187,196.44249,146.406631,197.174332,146.563629,197.878754C146.812943,199.340454,147.516479,200.686462,148.574341,201.72554C149.70665,202.734756,151.106796,203.394897,152.60585,203.626266C155.81012,204.200104,159.101563,203.280304,161.544113,201.128418C162.933075,199.840149,164.034241,198.272949,164.775436,196.529541C165.347763,195.230743,165.785461,193.876694,166.08165,192.488632C166.417786,190.943008,166.685165,189.383347,166.883072,187.814011L166.056396,188.095947C165.073257,188.422852,164.13295,188.866608,163.25563,189.417725C162.789612,189.716324,162.39151,190.109482,162.087097,190.571732C161.951584,190.796326,161.849136,191.039261,161.782898,191.29306L161.700378,191.478561C161.599792,191.725708,161.341522,191.871017,161.078064,191.828659C160.802277,191.706039,160.629623,191.428009,160.641998,191.126434C160.67189,190.305756,160.914764,189.506927,161.346756,188.808487C161.866394,188.105392,162.536728,187.527969,163.309021,187.118195C164.328384,186.593597,165.42041,186.224548,166.549011,186.023239L166.7854,185.980591L166.813797,185.390182C166.97406,182.98288,167.314865,180.591171,167.833328,178.234924C167.87265,177.985046,167.96608,177.746735,168.107071,177.536728L168.146408,177.515732C166.429031,177.395142,164.707535,177.344162,162.986008,177.362885C161.158737,177.418045,159.354996,177.791351,157.65593,178.466003C155.342758,179.390396,153.54657,181.275528,152.73494,183.63063C152.427032,184.506927,152.349915,185.447662,152.511017,186.362396C152.599152,186.83522,152.820099,187.273102,153.148041,187.624939C153.431641,187.885422,153.79863,188.036575,154.183426,188.051361C154.962997,188.152267,155.754715,188.009842,156.450256,187.643585C157.530472,187.061615,158.345581,186.08757,158.727997,184.921677C158.811951,184.729294,158.812531,184.510376,158.729614,184.317551L158.711456,184.131958C158.698273,183.830002,158.817276,183.537018,159.037262,183.329788C159.186676,183.198151,159.408646,183.190948,159.566299,183.312592C159.740479,183.528656,159.825943,183.802643,159.805496,184.079422C159.920029,185.327621,159.487305,186.564545,158.619614,187.469131C157.40831,188.870346,155.574829,189.570175,153.73793,189.332413C152.139221,189.094955,150.830017,187.938202,150.39743,186.38092C150.03772,185.03624,150.104355,183.613235,150.588135,182.30806C151.492416,179.840271,153.400833,177.872437,155.839737,176.892929C156.118408,176.77449,156.401779,176.667511,156.689178,176.57222z"/>
    <path style="stroke:none;fill:#0000ff;fill-rule:evenodd" d="M198.019165,165.65506C198.439651,165.603104,198.847504,165.475891,199.222977,165.279602C198.968201,166.291779,198.679062,167.295074,198.35611,168.287582L198.168304,168.971603C197.578033,171.458649,197.109833,173.973007,196.765366,176.505829C196.660843,177.175873,196.600555,177.852005,196.584854,178.529968C196.987244,177.474915,197.507889,176.469025,198.136932,175.531296C198.71077,174.705429,199.465637,174.021698,200.344086,173.532135C200.711929,173.324707,201.129272,173.221039,201.551437,173.232254C202.088318,173.288742,202.542145,173.654419,202.711472,174.167023C202.869019,174.680023,202.894012,175.224609,202.784134,175.749893C202.619156,176.687958,202.190155,177.559631,201.547485,178.262604C201.036102,178.922653,200.380508,179.457275,199.631088,179.825439L199.631348,179.950729C199.688446,180.90123,200.05748,181.806198,200.681335,182.525574C200.956741,182.844299,201.317566,183.077606,201.721222,183.197983C202.141525,183.285324,202.577393,183.15332,202.878601,182.847473C203.227432,182.514587,203.495697,182.106689,203.663147,181.654526C203.925293,181.023743,204.100525,180.36026,204.184006,179.682297C204.314438,178.789398,204.417435,177.892776,204.492859,176.993546L204.533417,176.79274C204.561127,176.655396,204.652115,176.538681,204.778564,176.478302L204.824707,173.528687C204.848694,173.2742,204.733231,173.026337,204.52298,172.880981L204.424576,172.795029C204.286926,172.643631,204.164078,172.479446,204.057678,172.304672C204.734314,172.029678,205.407425,171.744492,206.075684,171.449646L206.306503,171.38588C206.60289,171.313477,206.914642,171.418701,207.106552,171.655899C207.218979,171.863052,207.264633,172.099976,207.237198,172.334061L207.228073,172.608353L206.94783,178.960129L206.917572,179.528839C206.900665,179.935638,206.960907,180.341537,207.095245,180.725906C207.14296,180.928955,207.283752,181.098083,207.474792,181.181808C207.742859,181.214432,208.010406,181.118011,208.196045,180.92189C208.383438,180.768784,208.539856,180.581146,208.656754,180.369263C208.969971,179.602448,209.189941,178.800781,209.311905,177.981506C209.468262,177.040375,209.59668,176.094864,209.696991,175.146118L209.70546,175.027451C209.712784,174.819412,209.832901,174.631546,210.018661,174.537628C210.097076,173.85347,210.18869,173.170578,210.293335,172.48996C210.354706,171.803741,210.499573,171.127563,210.724701,170.476425C210.922455,170.034622,211.300415,169.698807,211.762436,169.554428C212.024429,169.478378,212.292328,169.424957,212.563446,169.394714L212.798676,169.326706C212.975677,169.249329,213.14859,169.162918,213.316711,169.067795C213.113937,169.917114,212.906281,170.767899,212.694977,171.615097L212.569031,172.20816C212.477814,172.667938,212.3974,173.129822,212.32782,173.593369C213.199341,171.68959,214.417389,169.96489,215.920105,168.506866C216.236679,168.188904,216.62381,167.949768,217.049866,167.809021C217.212921,167.778275,217.379379,167.769699,217.544754,167.783493L217.43335,169.016861C217.344193,169.853363,217.24855,170.690674,217.146805,171.525726L217.038025,172.644958C216.924316,173.703934,216.878403,174.769089,216.900589,175.833923C216.912262,176.295486,216.988922,176.753021,217.128296,177.193176C217.160004,177.341782,217.241669,177.475098,217.35968,177.570831C217.546295,177.597122,217.732208,177.524063,217.850983,177.377731C218.130096,177.072845,218.339905,176.711044,218.465942,176.317383C218.633331,175.876526,218.767365,175.423721,218.866943,174.962784C219.120605,173.771698,219.307037,172.567261,219.425323,171.355225L219.452042,171.228165C219.482208,171.066299,219.591003,170.929947,219.742126,170.864578C219.938889,169.885376,220.258148,168.934891,220.692398,168.035477C220.831879,167.237488,221.203522,166.49826,221.760834,165.910324C222.559814,164.95079,223.68811,164.323654,224.92485,164.151672C225.764343,164.057327,226.611404,164.233704,227.34346,164.655273C227.68457,164.876953,227.847107,165.290253,227.748322,165.684891C227.604858,165.965607,227.298828,166.12262,226.987122,166.075531C226.764496,166.018158,226.570679,165.881485,226.441925,165.69104L226.289276,165.533386C225.915894,165.127838,225.293488,165.073563,224.85556,165.408371C224.485199,165.667114,224.166611,165.992996,223.916275,166.36911C223.520981,166.918625,223.146164,167.482544,222.792557,168.059769C222.472046,169.281235,222.205795,170.516205,221.994568,171.76123C221.884583,172.439911,221.859482,173.129684,221.919876,173.81456C221.941254,174.264343,222.100403,174.696854,222.375641,175.053223C222.582443,175.291794,222.935715,175.338104,223.197021,175.160919C223.564667,174.927094,223.858978,174.594696,224.046585,174.201462C224.612106,173.066589,224.996994,171.850662,225.187515,170.597076C225.291779,169.909943,225.38089,169.22081,225.454834,168.529755L225.429413,168.271805C225.386292,167.95134,225.420486,167.625015,225.529114,167.32045C225.686249,167.056335,225.913025,166.841248,226.18512,166.698349L226.514481,166.546844C226.730728,166.42276,226.933258,166.27623,227.118774,166.10965C227.772644,167.120605,228.288376,168.214493,228.652222,169.362183C229.055817,170.530746,229.310181,171.745636,229.409271,172.977951L229.410751,172.912994C229.443756,172.691971,229.515869,172.478653,229.623718,172.282913L229.875046,171.806091C230.310883,170.834015,230.568527,169.791977,230.635925,168.728821L230.715363,167.286865C230.737427,167.061066,230.844376,166.851685,231.014404,166.701462C231.164597,166.571167,231.371857,166.527618,231.561798,166.586411C231.744049,166.693039,231.852036,166.892044,231.842056,167.102966C231.758331,168.434387,231.598892,169.759842,231.364456,171.073151C231.182571,172.0233,230.816803,172.92894,230.287842,173.738907C230.076172,174.053284,229.838333,174.349213,229.576843,174.623535C229.595932,176.043762,229.429993,177.460373,229.083221,178.837738C228.792084,180.084991,228.367462,181.297333,227.816772,182.453674C227.287735,183.563538,226.575363,184.576157,225.709503,185.449081C224.745865,186.378998,223.508331,186.973328,222.180115,187.144089C221.550949,187.231506,220.913651,187.049301,220.425751,186.642517C219.406616,185.659164,219.152679,184.123764,219.800934,182.864624C220.152893,182.122223,220.614273,181.436859,221.169678,180.831406C221.91658,179.815063,222.789398,178.897629,223.767273,178.101044C224.629181,177.372726,225.500793,176.656631,226.382492,175.952454L226.82486,175.565994L227.233704,175.190247C227.16011,173.609573,226.849304,172.049149,226.311661,170.560898C226.172211,171.942398,225.810303,173.291962,225.239777,174.557846C225.024521,175.031815,224.744797,175.473816,224.408569,175.871231C223.947678,176.413132,223.289993,176.749008,222.58078,176.804672C221.674164,176.800873,220.828857,176.343826,220.329208,175.587296C220.206985,175.419022,220.106339,175.236099,220.029633,175.042786L220.013397,175.122635C219.837402,176.107285,219.475739,177.049515,218.947693,177.899017C218.338898,178.833939,217.195984,179.269623,216.119324,178.977219C215.651306,178.855331,215.258301,178.53775,215.040863,178.105759C214.581177,177.234818,214.396942,176.24469,214.51265,175.266693C214.58548,174.182541,214.738525,173.105286,214.970535,172.043762L214.977386,171.933258C214.982422,171.80986,214.95903,171.687012,214.909088,171.574051L214.887604,171.56749C214.560791,171.795746,214.288422,172.092682,214.089172,172.437943C213.51886,173.413025,213.067154,174.452881,212.743729,175.535202C212.316406,176.87709,212.019592,178.257141,211.857483,179.656067L211.766571,180.34967C211.756119,180.583847,211.672791,180.80925,211.528397,180.993896C211.330017,181.136444,211.114944,181.253998,210.887863,181.34404L210.684448,181.437164L210.429749,181.559662L210.201691,181.663559C209.948059,181.794128,209.70546,181.945129,209.476334,182.115082C209.492157,181.754822,209.509094,181.396637,209.527344,181.036499L209.456604,181.172745C208.917252,182.142548,207.848633,182.693283,206.745819,182.569794C206.302826,182.472351,205.905426,182.228851,205.617477,181.878387C205.375504,181.609543,205.18573,181.298004,205.057831,180.959656L205.0047,181.171432C204.810471,182.005646,204.461685,182.796066,203.976395,183.501831C203.579437,184.049667,203.037598,184.475922,202.411713,184.732742C202.047897,184.916763,201.65213,185.029572,201.245956,185.065018C200.315582,185.07074,199.430557,184.665543,198.826965,183.95752C198.042511,183.113571,197.629944,181.990829,197.68132,180.839737C197.718048,180.25325,197.955887,179.697525,198.354828,179.266052C198.496155,179.15242,198.6548,179.062378,198.824829,178.999329L199.04483,178.871841C199.834091,178.399734,200.415268,177.64592,200.671082,176.762527C200.756134,176.488632,200.709381,176.190796,200.54454,175.956116C200.420334,175.84433,200.244766,175.810364,200.087814,175.867767C199.68399,176.015945,199.323669,176.262299,199.039032,176.584824C198.419968,177.263412,197.91597,178.038635,197.546967,178.879822C197.156738,179.73085,196.830902,180.610001,196.572189,181.509796C196.529022,182.773285,196.665573,184.036255,196.977814,185.261322C197.095367,185.648941,197.282028,186.012024,197.528839,186.333176L195.472717,187.103149C195.286407,187.201523,195.061432,187.19426,194.881866,187.084061C194.708176,186.935638,194.614792,186.71434,194.629623,186.486359C194.592255,186.178879,194.567551,185.869965,194.555588,185.560455L194.548798,185.586197C194.490356,185.827209,194.400681,186.05957,194.282059,186.277344C194.221405,186.358963,194.137573,186.420349,194.041443,186.453491C193.606003,187.330902,192.893509,188.040802,192.014496,188.473007C191.291458,188.867432,190.491989,189.101379,189.670395,189.158966C188.944504,189.177124,188.246231,188.880707,187.755066,188.345917C187.271683,187.827423,186.93364,187.190765,186.774918,186.499908L186.771103,186.528702C186.660294,187.427429,186.451599,188.311478,186.148758,189.164871C185.977875,189.639359,185.734238,190.084442,185.42662,190.484085C184.959686,191.076492,184.246078,191.420364,183.491791,191.416412C182.836594,191.354065,182.250641,190.982681,181.914581,190.416794C181.720947,190.111176,181.572983,189.778931,181.475388,189.430542L181.463257,189.53389C181.272583,190.583878,180.847031,191.576797,180.21817,192.43898C179.742615,193.036285,179.016602,193.379837,178.253189,193.36879C177.695923,193.398682,177.153076,193.184052,176.766922,192.781158C176.375076,192.297775,176.134781,191.70961,176.07605,191.090118C176.018066,190.459549,176.086456,189.823929,176.277267,189.220123C176.286575,189.146454,176.332214,189.08165,176.398438,189.04805L176.390625,189.026474C176.342453,189.004059,176.290771,188.990158,176.237854,188.985397L176.124176,188.950546C175.908524,188.80748,175.798859,188.550415,175.844818,188.295746C175.864746,188.115646,175.888474,187.935944,175.915955,187.756836L175.953186,187.444138L175.969894,187.136505C176.063644,186.177994,176.174576,185.220795,176.302551,184.266266C176.318481,183.907654,176.359436,183.550568,176.425079,183.197662C176.556427,182.6996,176.936432,182.305237,177.429291,182.155518L179.45752,181.395996C179.302139,182.041321,179.117172,182.679153,178.903214,183.30748L178.857407,183.506088C178.788925,183.847702,178.736511,184.192337,178.700348,184.538864C178.49382,186.214462,178.340515,187.8965,178.240738,189.581863C178.172272,190.238037,178.265045,190.901123,178.510941,191.513336C178.561783,191.695236,178.694016,191.84404,178.868683,191.915878C178.974304,191.930847,179.081161,191.900848,179.163559,191.833099C179.467529,191.570801,179.7061,191.241562,179.860672,190.871017C180.136948,190.293762,180.341797,189.684937,180.470642,189.058075C180.857483,187.268723,181.130615,185.456665,181.288406,183.632782C181.362213,182.922333,181.433228,182.211578,181.501434,181.500534L181.538956,181.282608C181.646088,180.858917,181.941742,180.507645,182.340942,180.329758L182.570602,180.230194L184.402206,179.544296L184.353409,179.77739C184.266541,180.233078,184.135223,180.67923,183.96138,181.109329L183.894363,181.338287C183.747711,182.097061,183.645004,182.863602,183.586731,183.634232C183.45607,184.824066,183.369019,186.018372,183.32579,187.2146C183.274719,187.912415,183.355621,188.613953,183.564194,189.28183C183.618423,189.493362,183.733475,189.684418,183.895096,189.831284C184.01622,189.9198,184.182175,189.915833,184.298935,189.821609C184.608917,189.611816,184.847427,189.312286,184.982468,188.963181C185.312515,188.173279,185.543442,187.345596,185.669968,186.498917C185.804001,185.637756,185.91127,184.772766,185.991638,183.904953L186.022964,183.785294C186.073608,183.52179,186.297943,183.326401,186.565918,183.312408C186.648926,182.18924,186.912811,181.086823,187.347382,180.047806C187.71904,179.137787,188.315125,178.336594,189.079941,177.719055C189.753937,177.185242,190.593353,176.904099,191.452896,176.924286C192.247726,176.999344,192.914246,177.557312,193.127945,178.326538C193.345734,178.970078,193.293701,179.674637,192.983765,180.279205C192.833069,180.669266,192.529343,180.981155,192.143417,181.142136C191.94426,181.203491,191.729523,181.187653,191.541519,181.097717L191.30661,180.97583C191.36676,180.639725,191.432678,180.304657,191.504318,179.97084L191.547653,179.746826C191.66127,179.259521,191.597275,178.747757,191.367142,178.303421C191.284821,178.192078,191.142731,178.142395,191.008957,178.178162C190.592072,178.32515,190.24263,178.61792,190.024902,179.002625C189.187485,180.419617,188.740997,182.033508,188.731064,183.679428C188.685242,184.413177,188.755264,185.149765,188.938522,185.861725C189.064285,186.370819,189.305496,186.844162,189.643494,187.245087C189.78627,187.421402,189.966843,187.563538,190.171753,187.66095C190.486771,187.791016,190.841187,187.787582,191.153641,187.651443C191.874847,187.392181,192.473251,186.872665,192.831192,186.194992C193.225632,185.440765,193.498825,184.629089,193.640686,183.789856C193.804352,182.896057,193.938538,181.997147,194.043015,181.094513L194.062393,180.959C194.082642,180.774078,194.170242,180.602966,194.308411,180.478424L194.321091,180.379303C194.443268,179.368866,194.561508,178.362778,194.67688,177.351547L194.920135,175.287491C195.154175,173.117874,195.47464,170.958435,195.880722,168.814407C195.982239,168.146393,196.176041,167.495529,196.456467,166.880798C196.751556,166.246277,197.332611,165.790512,198.019165,165.65506zM227.273163,176.851501C226.742767,177.307327,226.208664,177.758133,225.670227,178.204407L225.186218,178.618195C223.868835,179.724716,222.652969,180.946869,221.553268,182.269943C221.112778,183.101959,220.901108,184.035904,220.939819,184.976547C220.946045,185.336716,221.102509,185.67775,221.371414,185.917419C221.60144,186.086349,221.899078,186.133896,222.170273,186.045029C222.688141,185.898209,223.162979,185.629105,223.555038,185.260284C224.327606,184.562195,224.98587,183.74762,225.506256,182.845749C225.981674,181.863968,226.391861,180.852127,226.734283,179.816437C226.883148,179.11264,227.01825,178.406235,227.139618,177.697159L227.179199,177.490982C227.223923,177.250076,227.280975,177.011597,227.350143,176.776535L227.273163,176.851501z"/>
    <path style="stroke:none;fill:#0000ff;fill-rule:evenodd" d="M145.671539,192.961472L145.640594,193.001877L145.587875,193.074265L145.301636,193.50621L145.255386,193.583054L145.008698,194.037643L144.971725,194.107773L144.933151,193.986008L144.617966,192.926682L144.327682,191.852951L144.062057,190.765549L143.824509,189.673264L143.614548,188.577072L143.429001,187.456955L143.27153,186.333908L143.143845,185.215256L143.04155,184.065353L142.969284,182.921555L142.925339,181.763351L142.910446,180.601242L142.925339,179.439133L142.969284,178.281662L143.041794,177.136642L143.143845,175.987228L143.27153,174.868576L143.429001,173.745529L143.614548,172.625412L143.82402,171.531418L144.063034,170.433029L144.32695,169.35173L144.617966,168.275803L144.933151,167.216476L145.272751,166.17131L145.638718,165.132004L146.033737,164.092697L146.442184,163.093185L146.883347,162.084641L147.347702,161.089767L147.831345,160.117111L148.334518,159.162766L148.870651,158.204025L149.422653,157.270432L149.998825,156.347336L150.594772,155.442062L151.205856,154.560226L151.849411,153.678146L152.506149,152.821457L153.186081,151.977219L153.882126,151.154221L154.595993,150.349533L155.337692,149.552902L156.090866,148.781906L156.861862,148.028732L157.658493,147.287033L158.463181,146.573166L159.286179,145.877121L160.130417,145.197189L160.987106,144.540451L161.869186,143.896896L162.751022,143.285812L163.656296,142.689865L164.579391,142.113693L165.512985,141.561691L166.471725,141.025558L167.426071,140.522385L168.398727,140.038742L169.3936,139.574387L170.402145,139.133224L171.401657,138.724777L172.440964,138.329758L173.48027,137.963791L174.525436,137.624191L175.584763,137.309006L176.66069,137.01799L177.741989,136.754074L178.840378,136.51506L179.934372,136.305588L181.054489,136.120041L182.177536,135.96257L183.296188,135.834885L184.445602,135.732834L185.590622,135.660324L186.748093,135.616379L187.910202,135.601486L189.072311,135.616379L190.230515,135.660324L191.374313,135.73259L192.524216,135.834885L193.642868,135.96257L194.765915,136.120041L195.886032,136.305588L196.982224,136.515549L198.074509,136.753098L199.161911,137.018723L200.235641,137.309006L201.294968,137.624191L202.340134,137.963791L203.37944,138.329758L204.41362,138.723068L205.428268,139.137375L206.429977,139.575607L207.414597,140.03508L208.386032,140.51799L209.356491,141.030197L210.307419,141.561691L211.241013,142.113693L212.164108,142.689865L213.069382,143.285812L213.951218,143.896896L214.833298,144.540451L215.689987,145.197189L216.534225,145.877121L217.357224,146.573166L218.161911,147.287033L218.958542,148.028732L219.73027,148.782394L220.486862,149.556808L221.220261,150.344894L221.938278,151.154221L222.634323,151.977219L223.315475,152.822922L223.969284,153.675705L224.614059,154.559982L225.22612,155.443039L225.821579,156.347336L226.397751,157.270432L226.949753,158.204025L227.485886,159.162766L227.989059,160.117111L228.472702,161.089767L228.937057,162.084641L229.37822,163.093185L229.786667,164.092697L230.181686,165.132004L230.442825,165.881836L230.414841,165.900558L230.346481,165.956711L230.283493,166.018478L230.168259,166.141769L230.106003,166.215256L230.055222,166.287521L229.965378,166.428635L229.915817,166.516037L229.87944,166.596603L229.817673,166.752121L229.786179,166.844162L229.765427,166.930099L229.757156,166.972565C228.825851,164.113953,227.598495,161.342865,226.084763,158.706223L225.665817,157.997238L144.043991,177.15593C143.616898,182.517166,144.18158,187.871414,145.671539,192.961472zM193.500702,144.827194C193.675598,144.652283,193.687134,144.345535,193.525528,144.166962C193.26564,143.879791,192.708832,144.109055,192.708832,144.50325C192.708832,144.602234,192.773621,144.748001,192.852798,144.827194C192.931992,144.906372,193.077759,144.971161,193.176758,144.971161C193.275726,144.971161,193.421509,144.906372,193.500702,144.827194zM181.543228,149.447586C181.390381,149.22937,181.402542,148.988312,181.575134,148.81572C181.991531,148.399323,182.595779,148.960968,182.254944,149.447586C182.176651,149.559357,182.069412,149.607574,181.899078,149.607574C181.72876,149.607574,181.621521,149.559357,181.543228,149.447586zM201.008224,143.313004C201.211411,143.204254,201.307785,142.913589,201.205231,142.718765C201.09288,142.50531,201.004364,142.455933,200.73175,142.454636C200.438812,142.453247,200.239929,142.715332,200.312988,143.006454C200.397552,143.343338,200.701294,143.477264,201.008224,143.313004zM157.813477,152.886978C158.111481,152.588989,157.910156,152.095108,157.490677,152.095108C157.313766,152.095108,157.20726,152.146927,157.097565,152.286392C156.744156,152.735687,157.407928,153.292526,157.813477,152.886978zM159.827972,154.851761C159.984207,154.653152,159.978958,154.399277,159.814529,154.201157C159.684036,154.043915,159.204529,154.089188,159.077347,154.270752C158.919418,154.496231,158.937698,154.665619,159.141983,154.869904C159.375946,155.103882,159.635056,155.097031,159.827972,154.851761zM193.500702,142.019669C193.70784,141.812531,193.687057,141.487564,193.454987,141.305023C193.350662,141.222961,193.225464,141.155823,193.176758,141.155823C193.128036,141.155823,193.002838,141.222961,192.898499,141.305023C192.548691,141.580185,192.737762,142.163635,193.176758,142.163635C193.275726,142.163635,193.421509,142.098846,193.500702,142.019669zM201.145569,161.294601L199.189682,161.763168L200.579895,149.526245L202.535797,149.057663L201.145569,161.294601zM191.58699,154.062912L190.425323,154.341217L189.313492,164.129227L187.357605,164.597794L188.469681,154.809723L187.312836,155.086868L187.590988,152.638016L191.865128,151.614044L191.58699,154.062912zM199.864594,152.079834L198.703171,152.358078L197.591095,162.146149L195.635208,162.614716L196.747284,152.826645L195.590454,153.10379L195.868591,150.654938L200.142746,149.630966L199.864594,152.079834zM172.831009,158.556305L171.525558,158.869049L171.261932,161.189194L172.483658,160.896515L172.21933,163.224457L170.99736,163.517212L170.69162,166.208267L172.12735,165.864304L171.848969,168.313217L168.457581,169.125702L169.847809,156.888763L173.109161,156.107452L172.831009,158.556305zM181.774734,156.413651L180.469284,156.726395L180.205643,159.046539L181.427383,158.753845L181.162811,161.081848L179.941071,161.374542L179.635345,164.065613L181.070831,163.721695L180.792694,166.170563L177.401306,166.983047L178.791534,154.746109L182.052872,153.964783L181.774734,156.413651zM158.939789,161.884247L157.634338,162.196991L157.370697,164.517136L158.592438,164.224442L158.32811,166.552399L157.106125,166.845154L156.8004,169.536209L158.23613,169.192245L157.957748,171.641159L154.56636,172.453644L155.956589,160.216705L159.217926,159.435394L158.939789,161.884247zM162.297592,158.709808L162.623581,158.669128C162.913422,158.619553,163.206711,158.683914,163.476166,158.856247C163.745422,159.080261,163.907715,159.523193,163.893539,159.995285C163.868408,160.91922,163.789032,161.837662,163.656372,162.73941C163.603333,163.345291,163.487625,163.934082,163.31369,164.483215C163.057144,165.112854,162.656403,165.569916,162.191467,165.763153C161.826538,165.919662,161.45433,166.032059,161.07811,166.09938L160.518463,171.027695L158.562576,171.496262L159.952805,159.259338C160.731812,159.051254,161.513672,158.868011,162.297592,158.709808zM161.317017,163.998215L161.460068,163.971207C161.704926,163.947311,161.912628,163.682877,161.974686,163.316025C162.103119,162.636505,162.18129,161.936752,162.207703,161.230026C162.224548,161.085373,162.172424,160.941772,162.083771,160.88858C161.947815,160.841949,161.807114,160.84053,161.670776,160.88443L161.317017,163.998215zM176.197601,155.141876C176.497559,155.095764,176.800522,155.147568,177.0867,155.293915C177.363403,155.402435,177.587006,155.717133,177.682739,156.132797C177.747849,156.807632,177.72731,157.495667,177.622284,158.158371L177.567276,158.641953L175.750824,159.077118L175.85379,158.170059C175.900848,157.912354,175.908432,157.641205,175.875916,157.378189C175.848892,157.299194,175.79538,157.250717,175.737595,157.252869C175.508972,157.271225,175.316727,157.523895,175.26828,157.86969C175.166641,158.29129,175.141434,158.747467,175.195358,159.189575C175.300903,159.471664,175.466064,159.689102,175.663025,159.805298L175.939438,160.038818C176.340866,160.348923,176.699905,160.77565,176.996902,161.295609C177.143829,161.64653,177.217224,162.058548,177.207214,162.476242C177.212601,163.687302,177.042343,164.883957,176.70874,165.979797C176.421265,166.622131,176.024597,167.128662,175.562241,167.443863C174.936218,167.915497,174.230682,168.07225,173.544052,167.892242C173.211288,167.799271,172.922974,167.480576,172.75853,167.023911C172.669662,166.637726,172.637085,166.226349,172.663071,165.818436C172.701065,165.143707,172.763351,164.47287,172.84964,163.808853L174.666077,163.373688L174.496948,164.862488C174.44603,165.144455,174.437881,165.440811,174.473114,165.728455C174.50473,165.81929,174.567093,165.874008,174.633759,165.869415C174.881989,165.858536,175.09375,165.588562,175.147858,165.213989C175.281509,164.664169,175.310654,164.06662,175.231842,163.492065C175.048889,163.146423,174.821259,162.863617,174.563538,162.661713L174.411041,162.515732C174.114532,162.253143,173.834442,161.948517,173.574402,161.605804C173.337036,161.167252,173.223068,160.600235,173.257843,160.031006C173.281509,158.987534,173.457932,157.966415,173.774002,157.04364C174.186615,156.151611,174.800842,155.532227,175.495316,155.307831C175.726013,155.22229,175.960922,155.166779,176.197601,155.141876zM195.030853,162.759506L193.032013,163.238373L193.176849,161.063904L192.477203,161.231522L192.10968,163.459335L190.087692,163.943741L192.475525,151.467819L195.302597,150.790527L195.030853,162.759506zM193.336288,155.510208L193.195816,156.255203C193.018341,157.187653,192.85257,158.125641,192.69873,159.068085L193.372086,158.906769L193.39566,158.380692C193.469177,156.864899,193.556671,155.350479,193.658051,153.838608L193.336288,155.510208zM210.67778,152.466797L211.303879,146.957077L212.939133,146.565323L211.548904,158.802246L209.834518,159.212967L209.449234,153.893631L208.817123,159.456711L207.18187,159.848465L208.572098,147.611542L210.207352,147.219772L210.67778,152.466797zM184.893433,158.643982L185.519287,153.134338L187.154541,152.742569L185.764557,164.979446L184.050171,165.390167L183.664642,160.070877L183.032791,165.633896L181.397522,166.025665L182.787506,153.788788L184.423004,153.396973L184.893433,158.643982zM166.426254,157.71077C166.886383,157.593567,167.35112,157.524719,167.817261,157.504669C168.055847,157.482269,168.290787,157.607452,168.468338,157.854721C168.645905,158.102005,168.750839,158.45015,168.761185,158.819214C168.80603,159.996964,168.657059,161.172012,168.327927,162.236511C168.164627,162.618927,167.920441,162.902039,167.637192,163.037354L167.334686,163.18161L167.586609,163.244965C167.984451,163.332703,168.260742,163.900742,168.204727,164.515762C168.17775,164.922791,168.14035,165.328033,168.09259,165.730484L167.686768,169.310364L165.870331,169.745544L166.332352,165.679108C166.402573,165.290558,166.417252,164.88295,166.375366,164.484756C166.341843,164.404068,166.284836,164.353943,166.222824,164.350616C166.116043,164.33287,166.008163,164.339432,165.902618,164.370056L165.27562,169.888016L163.319733,170.356583L164.709961,158.119659C165.281952,157.979416,165.853683,157.843216,166.426254,157.71077zM166.119003,162.465591L166.272507,162.419647C166.55368,162.376068,166.773682,162.020554,166.789337,161.584488C166.875137,161.090668,166.925034,160.583603,166.938126,160.072693C166.947311,159.932144,166.892639,159.799713,166.80629,159.753372C166.682144,159.707657,166.553131,159.704697,166.428162,159.74469L166.119003,162.465591zM152.535034,161.038712C152.808899,160.976135,153.083725,160.923538,153.359192,160.880966C153.663803,160.802383,153.975281,160.810608,154.277969,160.905228C154.618576,161.098419,154.851532,161.587128,154.869965,162.147156C154.91481,163.324905,154.765839,164.499954,154.436707,165.564453C154.273407,165.946869,154.029205,166.22998,153.745972,166.365295L153.443451,166.509552L153.695389,166.572906C154.093216,166.660645,154.369507,167.228683,154.313492,167.843704C154.28653,168.250763,154.249115,168.65596,154.20137,169.058426L153.795532,172.638306L151.979095,173.073471L152.441132,169.00705C152.511337,168.6185,152.526016,168.210892,152.484146,167.812698C152.450638,167.731979,152.393616,167.681854,152.331604,167.678558C152.224823,167.660828,152.116943,167.667374,152.011383,167.697998L151.384399,173.215958L149.428497,173.684525L150.818726,161.447601C151.390717,161.307358,151.962448,161.171158,152.535034,161.038712zM152.227768,165.793533L152.381287,165.747589C152.66246,165.70401,152.882462,165.348495,152.898102,164.91243C152.983856,164.418594,153.033768,163.911545,153.046906,163.400635C153.056091,163.260086,153.001419,163.127655,152.91507,163.081314C152.790924,163.035599,152.661896,163.032623,152.536942,163.072632L152.227768,165.793533zM205.866943,148.028992C206.267776,147.946503,206.674713,148.092056,207.011353,148.438293C207.379715,148.93512,207.552399,149.693436,207.466568,150.437317C207.420273,151.09848,207.359009,151.756927,207.282867,152.411469C207.126343,153.992035,206.938202,155.564819,206.718719,157.127411C206.465118,159.098969,205.418091,160.594513,204.126419,160.830185C203.705215,160.969254,203.266205,160.903931,202.869919,160.643234C202.48378,160.325546,202.237595,159.712143,202.225006,159.036362C202.241623,158.183197,202.306305,157.33403,202.41835,156.49823C202.568237,155.012177,202.742798,153.532562,202.941956,152.060425C203.138306,149.968307,204.217392,148.336838,205.575043,148.079453L205.866943,148.028992zM205.275558,150.177551L205.208313,150.22879C205.086426,150.359589,205.006256,150.564804,204.988129,150.792435C204.944778,151.043488,204.909348,151.297653,204.881943,151.554031L204.204681,157.521606C204.15448,157.865707,204.131653,158.218063,204.136719,158.570724C204.143066,158.678314,204.200104,158.761887,204.269958,158.765991C204.481384,158.775604,204.663345,158.536896,204.691544,158.212906C204.745987,157.908371,204.790909,157.599945,204.826141,157.288712L205.495224,151.407104C205.549393,151.054214,205.571625,150.691376,205.561279,150.329041C205.551971,150.226639,205.49704,150.148743,205.430222,150.143173C205.37767,150.13736,205.324921,150.149094,205.275558,150.177551zM189.105515,136.615891C194.133438,136.743637,199.101608,137.737686,203.79155,139.554367L201.286911,142.057541L200.680954,142.021896C200.250534,142.021683,199.893906,142.355438,199.864304,142.784836C199.809097,143.252563,200.113968,143.686859,200.5728,143.793137C201.036514,143.890884,201.500168,143.624222,201.645798,143.173264C201.716141,142.99707,201.71492,142.800385,201.643356,142.62468L201.577927,142.417404L204.254684,139.738205C207.273972,140.94545,210.148758,142.486755,212.825241,144.33342L172.82402,153.722824L173.92485,152.630539L177.252975,149.319504L180.931931,149.319504L181.077194,149.565598C181.303513,149.992966,181.819534,150.175369,182.264206,149.985275C182.718399,149.785278,182.929031,149.258575,182.737595,148.800705C182.557053,148.36058,182.06398,148.137756,181.615036,148.29509C181.32341,148.378296,181.091568,148.599991,180.995407,148.887619L177.075241,148.887619L172.062057,153.901535L149.45488,159.208176L149.82695,158.55217C152.860565,153.299561,156.953201,148.735077,161.845016,145.148605L161.845016,147.877609L158.012497,151.719894C157.817291,151.708328,157.622498,151.691299,157.428268,151.668625L157.250778,151.684006C156.791397,151.786804,156.492889,152.232178,156.576218,152.69548C156.630371,153.160492,157.042419,153.500229,157.508835,153.459885C157.913589,153.449432,158.261963,153.16925,158.356491,152.775558L158.352829,152.636642L158.353561,151.987228L162.276901,148.073654L162.276901,144.831955C164.037247,143.567352,165.890106,142.436829,167.81987,141.449875L167.81987,141.909836L163.860641,145.867111L163.860641,149.834885L159.980515,153.70549C159.786072,153.699066,159.591766,153.688766,159.397751,153.674484L159.215866,153.699875C158.790756,153.799271,158.504623,154.197968,158.549362,154.632248C158.606644,155.121948,159.024414,155.490112,159.51738,155.481369C159.96698,155.449844,160.327194,155.09642,160.368698,154.647629C160.379715,154.438446,160.361847,154.228699,160.314743,154.024582L164.292526,150.037521L164.292526,146.078049L168.251999,142.128342L168.251999,141.230148C170.370697,140.169601,172.572617,139.284271,174.835739,138.582932C175.935501,139.672806,177.042618,140.77803,178.134079,141.875656L183.74736,141.875656L186.554245,144.682053L192.20195,144.683029L192.328659,144.881027C192.445328,145.130936,192.66954,145.313766,192.937302,145.379807C193.291092,145.462662,193.661728,145.345688,193.902634,145.073654C194.171982,144.702179,194.142105,144.192917,193.832077,143.85466C193.4608,143.523651,192.902634,143.520172,192.526901,143.846115C192.419174,143.965073,192.333939,144.102402,192.273727,144.251144L186.774948,144.251144L183.954636,141.443771L178.280075,141.443771L175.282516,138.449875L175.8936,138.26799L177.026901,137.963547L178.131149,139.068039L183.810593,139.068039L186.630905,141.875656L192.181198,141.875656L192.416794,142.168625C192.524216,142.310776,192.656204,142.432617,192.806686,142.528C193.064774,142.599716,193.339066,142.586792,193.589157,142.490891C193.786819,142.367264,193.947372,142.19223,194.052292,141.984055C194.087845,141.734924,194.067154,141.480988,193.991745,141.240891C193.804092,140.903992,193.430649,140.715332,193.048141,140.764328C192.778641,140.808075,192.542618,140.969467,192.404099,141.204758L192.262985,141.443771L186.778366,141.443771L183.958054,138.636154L178.335983,138.636154L177.533493,137.836349L177.589401,137.822189C181.358047,136.91362,185.230392,136.507996,189.105515,136.615891zM196.039368,146.722519C195.690628,146.544693,195.510712,146.269547,195.510712,145.914063C195.510712,145.536377,195.637604,145.299316,195.939758,145.112579L196.178223,144.965195L196.178223,143.06926L196.178223,141.173325L195.939758,141.02594C195.398499,140.691422,195.34137,139.954208,195.825165,139.547119C196.001572,139.398682,196.121765,139.361893,196.430176,139.361893C196.762924,139.361893,196.844666,139.391525,197.033813,139.580658C197.270554,139.817413,197.374786,140.17984,197.296829,140.495224C197.242432,140.715286,196.919693,141.0896,196.784363,141.0896C196.736618,141.0896,196.677887,141.140839,196.653854,141.203461C196.629822,141.266098,196.610153,142.139908,196.610153,143.145294L196.610153,144.973236L196.8293,145.086563C197.492813,145.429672,197.482254,146.366852,196.810989,146.711487C196.48111,146.880844,196.353455,146.882675,196.039368,146.722519zM196.775711,146.182068C196.950745,145.979263,196.904266,145.70639,196.664291,145.528015C196.417465,145.344543,196.116287,145.424835,195.979309,145.710632C195.735779,146.21875,196.403122,146.613785,196.775711,146.182068zM196.731491,140.573135C196.823135,140.487045,196.898102,140.34848,196.898102,140.265213C196.898102,139.804245,196.327698,139.617096,196.039474,139.98349C195.957413,140.087814,195.890274,140.213028,195.890274,140.261734C195.890274,140.310455,195.957413,140.435654,196.039474,140.539978C196.223892,140.774414,196.503006,140.787796,196.731491,140.573135zM168.321915,147.723907C168.136978,147.649231,167.901443,147.326767,167.83699,147.059982C167.771637,146.789566,167.975937,146.315094,168.238068,146.128433C168.42128,145.997971,168.518158,145.981735,168.900223,146.01741L169.347763,146.059204L171.30397,144.101501L173.260178,142.143814L173.216675,141.778748C173.163818,141.335144,173.304352,141.015976,173.6436,140.809128C174.254639,140.436554,174.989883,140.879852,174.989883,141.620819C174.989883,141.930084,174.957474,142.010651,174.749359,142.21875C174.464539,142.503586,174.197342,142.585785,173.876495,142.48732L173.642288,142.415436L171.631836,144.41037L169.621384,146.405289L169.624084,146.853485C169.626663,147.280518,169.614105,147.313339,169.357895,147.548264C169.136581,147.751221,169.034683,147.794037,168.781998,147.790283C168.613144,147.787781,168.406113,147.757904,168.321915,147.723907zM174.304337,142.023499C174.663406,141.859894,174.623474,141.277466,174.244553,141.151382C173.85112,141.020462,173.446487,141.557495,173.704407,141.868271C173.777893,141.956818,173.939407,142.051651,174.104645,142.103256C174.112686,142.105774,174.202545,142.06987,174.304337,142.023499zM169.118805,147.202927C169.271652,146.984695,169.259476,146.743652,169.086884,146.57106C168.790054,146.274216,168.277023,146.479431,168.277023,146.895004C168.277023,147.324646,168.879242,147.544952,169.118805,147.202927zM168.251923,150.537796C168.119202,150.456863,167.980133,150.279999,167.908554,150.10112C167.617828,149.374512,168.241913,148.689316,169.00798,148.894043L169.253021,148.959534L171.249878,146.963623L173.24675,144.967728L173.20929,144.554565C173.173676,144.161804,173.183945,144.128174,173.417435,143.873398C173.615082,143.65773,173.728424,143.598007,173.997742,143.567657C174.637161,143.495575,175.046188,143.933975,174.970032,144.609741C174.939392,144.881561,174.883484,144.990524,174.690842,145.153839C174.472076,145.339325,174.408951,145.355606,174.002808,145.331421L173.555634,145.30481L171.591217,147.270248L169.626801,149.235687L169.626801,149.711197C169.626801,150.174774,169.61972,150.192825,169.344849,150.430527C169.012161,150.718231,168.612198,150.757477,168.251923,150.537796zM169.073318,150.095657C169.38356,149.80661,169.191376,149.306595,168.77002,149.306595C168.316788,149.306595,168.11937,149.778824,168.438995,150.09845C168.623596,150.283051,168.873352,150.281937,169.073318,150.095657zM174.426315,144.796204C174.590347,144.647751,174.596954,144.285889,174.438812,144.111145C174.184982,143.830658,173.622116,144.051376,173.622116,144.431396C173.622116,144.851318,174.117233,145.075912,174.426315,144.796204zM168.474991,153.505493C168.262756,153.449493,168.002396,153.190506,167.887756,152.921341C167.75116,152.600647,167.865387,152.185562,168.157959,151.939377C168.437973,151.703766,168.680099,151.643646,168.979294,151.735474L169.216309,151.808212L171.257233,149.762131C172.379745,148.63678,173.284592,147.677078,173.26799,147.629471C173.186478,147.395691,173.183929,146.975922,173.262863,146.785355C173.453506,146.325104,174.145309,146.141785,174.613739,146.427383C174.876831,146.587799,174.989883,146.817368,174.989883,147.191208C174.989883,147.764694,174.601822,148.101776,173.974564,148.073151L173.61322,148.056671L171.604675,150.064255L169.596115,152.071838L169.633011,152.470917C169.674088,152.915192,169.590866,153.135864,169.301163,153.350845C169.10788,153.494263,168.712784,153.568222,168.474991,153.505493zM174.397964,147.538818C174.592087,147.402832,174.613525,147.039734,174.438812,146.84668C174.281631,146.672989,173.945969,146.679138,173.766098,146.859009C173.349686,147.275406,173.911331,147.879654,174.397964,147.538818zM169.041183,152.972748C169.281219,152.783936,169.286194,152.522827,169.054169,152.290802C168.839005,152.075638,168.660919,152.066788,168.452576,152.260895C168.25383,152.44606,168.247375,152.786346,168.438995,152.977966C168.62294,153.161911,168.802673,153.160355,169.041183,152.972748zM186.198486,148.738007C185.801178,148.564941,185.550247,147.958755,185.733887,147.615631C185.816223,147.461792,185.734894,147.36557,184.356598,145.986038L182.8918,144.519943L181.003311,144.519943L179.114822,144.519943L179.009735,144.723145C178.868973,144.995361,178.733215,145.098816,178.425735,145.168167C177.829315,145.302689,177.311432,144.912003,177.311432,144.32756C177.311432,143.336182,178.377151,143.021729,178.994385,143.830963L179.189163,144.086319L181.138687,144.078674L183.088226,144.07103L184.617401,145.598969C185.999649,146.980087,186.160889,147.119247,186.295502,147.047211C186.689545,146.836319,187.309662,147.118729,187.461273,147.578125C187.613861,148.040466,187.396317,148.567673,186.981384,148.741043C186.690826,148.862442,186.482315,148.861633,186.198486,148.738007zM178.567139,144.575912C178.721497,144.355545,178.707458,144.163361,178.522675,143.966675C178.340561,143.772812,178.128876,143.754166,177.903351,143.912125C177.709229,144.048096,177.687805,144.411209,177.862503,144.604248C178.033661,144.793381,178.425873,144.777603,178.567139,144.575912zM186.975784,148.177078C187.120621,148.009567,187.133423,147.881073,187.025406,147.679214C186.751205,147.166885,185.913208,147.557434,186.153778,148.085434C186.306686,148.421005,186.724579,148.46759,186.975784,148.177078z"/>
</svg>
